# xmcd
#
# Track frame offsets: 
#        150
#        17337
#        32144
#        49220
#        62064
#        80344
#        93272
#        107230
#        123205
#        134144
#        146602
#
# Disc length: 2297 seconds
#
# Revision: 2
# Processed by: cddbd v1.5.1PL0 Copyright (c) Steve Scherf et al.
# Submitted via: ExactAudioCopy v0.95a5
#
DISCID=9308f70b
DTITLE=The Electrics - Livin' It Up When I Die
DYEAR=1998
DGENRE=Irish Rock
TTITLE0=Party Goin' on Upstairs
TTITLE1=Rolling Home
TTITLE2=Come Back Down
TTITLE3=Livin' It Up When I Die
TTITLE4=Yer Man McCann Can
TTITLE5=Piping Hot
TTITLE6=Till I'm Old
TTITLE7=Hey Paddy
TTITLE8=Have a Jar on Me
TTITLE9=Raggle Taggle Gypsy
TTITLE10=Face
EXTD=
EXTT0=
EXTT1=
EXTT2=
EXTT3=
EXTT4=
EXTT5=
EXTT6=
EXTT7=
EXTT8=
EXTT9=
EXTT10=
PLAYORDER=
